# xmcd CD database file
#
# Track frame offsets:
#	150
#	1023
#	1896
#	2694
#	3642
#	4440
#	5313
#	6111
#	7134
#	8082
#	9105
#	10053
#	11076
#	12024
#	13197
#	13995
#	14943
#	15966
#	16839
#	18087
#	19260
#	20208
#	21531
#	23004
#	23877
#	24975
#	25998
#	27021
#	27744
#	28467
#	29190
#	30063
#	31086
#	32034
#	33057
#	33930
#	34878
#	36126
#	38124
#	40047
#	41595
#	42768
#	45216
#	46989
#	48237
#	49110
#	49983
#	50631
#	51504
#	52452
#	53325
#	54123
#	55146
#	55944
#	56817
#	57840
#	58788
#	59886
#	60984
#	61932
#	62505
#	63378
#	64551
#	65424
#	66297
#	67320
#	68118
#	69066
#	69939
#	71562
#	73410
#	75183
#	76956
#	77904
#	79677
#	81375
#	83148
#	85521
#	86319
#	87192
#	88215
#	89013
#	90111
#
# Disc length: 1208 seconds
#
# Revision: 0
# Processed by: cddbd v1.5.2PL0 Copyright (c) Steve Scherf et al.
# Submitted via: CDex 1.70beta2
#
DISCID=1d04b653
DTITLE=Mark Levine - Jazz Piano MasterClass
DYEAR=2006
DGENRE=Jazz
TTITLE0=ex1.1 - Kenny Dorham's 'Blue Bossa'
TTITLE1=ex1.2 - Kenny Dorham's 'Blue Bossa'
TTITLE2=ex1.3 - C bebop major scale
TTITLE3=ex1.4 - C bebop major scale in 4-way close
TTITLE4=ex1.5
TTITLE5=ex1.6
TTITLE6=ex1.7
TTITLE7=ex1.8
TTITLE8=ex1.9
TTITLE9=ex1.10 - C bebop major scale in shearing style
TTITLE10=ex1.11 - C bebop major scale in drop 2
TTITLE11=ex1.12
TTITLE12=ex1.13
TTITLE13=ex1.14 - Duke Ellington's 'what am I here for?'
TTITLE14=ex1.15
TTITLE15=ex1.16 - Irving Berlin's 'always'
TTITLE16=ex1.17 - Irving Berlin's 'always' in 4-way close
TTITLE17=ex1.18 - Irving Berlin's 'always' in drop 2
TTITLE18=ex1.19
TTITLE19=ex1.20
TTITLE20=ex1.21
TTITLE21=ex1.22 - George Gershwin's 'SummerTime' in 4-way close
TTITLE22=ex1.23 - George Gershwin's 'SummerTime' in drop 2
TTITLE23=ex1.24
TTITLE24=ex1.25
TTITLE25=ex1.26
TTITLE26=ex1.27
TTITLE27=ex1.28
TTITLE28=ex1.29
TTITLE29=ex1.30
TTITLE30=ex1.31 - Harry Warren and Mack Gordon's 'there will never be another you'
TTITLE31=ex1.32 - Harry Warren and Mack Gordon's 'there will never be another you' in 4-way close
TTITLE32=ex1.33 - Harry Warren and Mack Gordon's 'there will never be another you' in drop 2
TTITLE33=ex1.34 - Jerome Kern's 'The way you look tonight' in drop 2
TTITLE34=ex1.35 Johnny Mandel's 'The shadow of your smile' in drop 2
TTITLE35=ex1.36 - (bridge of) Sigmund Romberg's 'Lover come back to me' in drop 2
TTITLE36=ex2.1 - All four C6 chords in drop 2
TTITLE37=ex2.2 - Tweaking the four major chords
TTITLE38=ex2.3
TTITLE39=ex2.4
TTITLE40=ex2.5 - All four C7 chords in drop 2
TTITLE41=ex2.6 - Tweaking the dominant chords
TTITLE42=ex2.7
TTITLE43=ex2.8
TTITLE44=ex2.9 - Kenny Dorham's 'blue bossa'
TTITLE45=ex2.10 - Kenny Dorham's 'blue bossa'
TTITLE46=ex2.11
TTITLE47=ex2.12 - Kenny Dorham's 'blue bossa'
TTITLE48=ex2.13
TTITLE49=ex3.1
TTITLE50=ex3.2
TTITLE51=ex3.3
TTITLE52=ex3.4
TTITLE53=ex3.5
TTITLE54=ex3.5
TTITLE55=ex3.7
TTITLE56=ex3.8 - Jerome Kern's 'all the things you are'
TTITLE57=ex3.9 - Jerome Kern's 'all the thing you are'
TTITLE58=ex3.10 - Jerome Kern's 'all the thing you are'
TTITLE59=ex3.11
TTITLE60=ex3.12
TTITLE61=ex3.13
TTITLE62=ex3.14
TTITLE63=ex3.15
TTITLE64=ex3.16
TTITLE65=ex3.17
TTITLE66=ex3.18 - Two chords scending in minor 3rds
TTITLE67=ex3.19
TTITLE68=ex4.1
TTITLE69=ex4.2
TTITLE70=ex4.3
TTITLE71=ex4.4
TTITLE72=ex4.5
TTITLE73=ex4.6
TTITLE74=ex4.7
TTITLE75=ex4.8
TTITLE76=ex4.9
TTITLE77=ex4.10 - enclosure
TTITLE78=ex4.11 - enclosure in minor
TTITLE79=ex4.12 - lick around the cycle of fifths
TTITLE80=ex4.13
TTITLE81=ex4.14
TTITLE82=ex4.15
EXTD=YEAR: 2006
EXTT0=
EXTT1=
EXTT2=
EXTT3=
EXTT4=
EXTT5=
EXTT6=
EXTT7=
EXTT8=
EXTT9=
EXTT10=
EXTT11=
EXTT12=
EXTT13=
EXTT14=
EXTT15=
EXTT16=
EXTT17=
EXTT18=
EXTT19=
EXTT20=
EXTT21=
EXTT22=
EXTT23=
EXTT24=
EXTT25=
EXTT26=
EXTT27=
EXTT28=
EXTT29=
EXTT30=
EXTT31=
EXTT32=
EXTT33=
EXTT34=
EXTT35=
EXTT36=
EXTT37=
EXTT38=
EXTT39=
EXTT40=
EXTT41=
EXTT42=
EXTT43=
EXTT44=
EXTT45=
EXTT46=
EXTT47=
EXTT48=
EXTT49=
EXTT50=
EXTT51=
EXTT52=
EXTT53=
EXTT54=
EXTT55=
EXTT56=
EXTT57=
EXTT58=
EXTT59=
EXTT60=
EXTT61=
EXTT62=
EXTT63=
EXTT64=
EXTT65=
EXTT66=
EXTT67=
EXTT68=
EXTT69=
EXTT70=
EXTT71=
EXTT72=
EXTT73=
EXTT74=
EXTT75=
EXTT76=
EXTT77=
EXTT78=
EXTT79=
EXTT80=
EXTT81=
EXTT82=
PLAYORDER=
